<svg width="31" height="30" viewBox="0 0 31 30" fill="none" xmlns="http://www.w3.org/2000/svg">
<path d="M9.27328 21.59C9.59913 21.9158 10.1274 21.9158 10.4533 21.59L12.8633 19.18C14.5201 17.5231 17.2064 17.5231 18.8633 19.18L21.2733 21.59C21.5991 21.9158 22.1274 21.9158 22.4533 21.59V21.59C22.7791 21.2642 22.7791 20.7358 22.4533 20.41L20.0433 18C18.3864 16.3431 18.3864 13.6569 20.0433 12L22.4533 9.59C22.7791 9.26415 22.7791 8.73585 22.4533 8.41V8.41C22.1274 8.08415 21.5991 8.08415 21.2733 8.41L18.8633 10.82C17.2064 12.4769 14.5201 12.4769 12.8633 10.82L10.4533 8.41C10.1274 8.08415 9.59913 8.08415 9.27328 8.41V8.41C8.94743 8.73585 8.94743 9.26415 9.27328 9.59L11.6833 12C13.3401 13.6569 13.3401 16.3431 11.6833 18L9.27328 20.41C8.94743 20.7358 8.94743 21.2642 9.27328 21.59V21.59ZM15.8683 30C13.7949 30 11.8449 29.6067 10.0183 28.82C8.19272 28.0322 6.60439 26.9633 5.25328 25.6133C3.90217 24.2633 2.83273 22.6767 2.04495 20.8533C1.25717 19.03 0.863281 17.0806 0.863281 15.005C0.863281 12.9294 1.25661 10.9794 2.04328 9.155C2.82995 7.33056 3.89884 5.74222 5.24995 4.39C6.60106 3.03778 8.18772 1.96834 10.0099 1.18167C11.8322 0.395003 13.7816 0.00111346 15.8583 2.34742e-06C17.9349 -0.00110876 19.8849 0.392224 21.7083 1.18C23.5316 1.96778 25.1199 3.03667 26.4733 4.38667C27.8266 5.73667 28.8961 7.32333 29.6816 9.14667C30.4672 10.97 30.861 12.9194 30.8633 14.995C30.8655 17.0706 30.4722 19.0206 29.6833 20.845C28.8944 22.6694 27.8255 24.2578 26.4766 25.61C25.1277 26.9622 23.5411 28.0317 21.7166 28.8183C19.8922 29.605 17.9427 29.9989 15.8683 30Z" fill="#DC75B0"/>
</svg>
