<svg width="20" height="20" viewBox="0 0 20 20" fill="none" xmlns="http://www.w3.org/2000/svg">
<rect width="20" height="20" rx="3" fill="#1D4ED8"/>
<path d="M16.2961 10.002C16.1105 10.002 15.9326 10.0758 15.8013 10.207C15.6701 10.3382 15.5963 10.5162 15.5963 10.7018V14.9006C15.5963 15.0862 15.5226 15.2642 15.3914 15.3954C15.2601 15.5267 15.0821 15.6004 14.8966 15.6004H5.09939C4.91379 15.6004 4.7358 15.5267 4.60456 15.3954C4.47332 15.2642 4.39959 15.0862 4.39959 14.9006V5.10345C4.39959 4.91785 4.47332 4.73986 4.60456 4.60862C4.7358 4.47738 4.91379 4.40365 5.09939 4.40365H9.29817C9.48377 4.40365 9.66177 4.32992 9.793 4.19869C9.92424 4.06745 9.99797 3.88945 9.99797 3.70385C9.99797 3.51826 9.92424 3.34026 9.793 3.20902C9.66177 3.07779 9.48377 3.00406 9.29817 3.00406H5.09939C4.5426 3.00406 4.00861 3.22524 3.6149 3.61896C3.22119 4.01267 3 4.54666 3 5.10345V14.9006C3 15.4574 3.22119 15.9914 3.6149 16.3851C4.00861 16.7788 4.5426 17 5.09939 17H14.8966C15.4533 17 15.9873 16.7788 16.381 16.3851C16.7748 15.9914 16.9959 15.4574 16.9959 14.9006V10.7018C16.9959 10.5162 16.9222 10.3382 16.791 10.207C16.6597 10.0758 16.4817 10.002 16.2961 10.002ZM5.79919 10.5339V13.501C5.79919 13.6866 5.87292 13.8646 6.00415 13.9958C6.13539 14.1271 6.31339 14.2008 6.49899 14.2008H9.46613C9.55822 14.2013 9.64952 14.1837 9.73478 14.1489C9.82004 14.114 9.89759 14.0627 9.96298 13.9979L14.8056 9.14828L16.793 7.20284C16.8586 7.13779 16.9107 7.06039 16.9462 6.97511C16.9817 6.88983 17 6.79837 17 6.70598C17 6.6136 16.9817 6.52214 16.9462 6.43686C16.9107 6.35158 16.8586 6.27418 16.793 6.20913L13.8259 3.207C13.7608 3.14141 13.6834 3.08935 13.5981 3.05382C13.5129 3.01829 13.4214 3 13.329 3C13.2366 3 13.1452 3.01829 13.0599 3.05382C12.9746 3.08935 12.8972 3.14141 12.8321 3.207L10.8587 5.18742L6.00213 10.037C5.93727 10.1024 5.88596 10.18 5.85113 10.2652C5.81631 10.3505 5.79866 10.4418 5.79919 10.5339ZM13.329 4.69057L15.3094 6.67099L14.3157 7.66471L12.3353 5.68428L13.329 4.69057ZM7.19878 10.8208L11.3486 6.67099L13.329 8.65142L9.17921 12.8012H7.19878V10.8208Z" fill="white"/>
</svg>
