<svg width="25" height="22" viewBox="0 0 25 22" fill="none" xmlns="http://www.w3.org/2000/svg">
<path d="M16.6674 10.7148C16.6674 9.40517 15.5959 8.3337 14.2863 8.3337C12.9768 8.3337 11.9053 9.40517 11.9053 10.7148C11.9053 12.0243 12.9768 13.0958 14.2863 13.0958C15.5959 13.0958 16.6674 12.0243 16.6674 10.7148ZM14.2863 0C11.4446 0 8.71927 1.12887 6.70986 3.13828C4.70046 5.14768 3.57158 7.87302 3.57158 10.7148H0L4.76211 15.4769L9.52422 10.7148H5.95264C5.95264 6.10741 9.67899 2.38106 14.2863 2.38106C18.8937 2.38106 22.62 6.10741 22.62 10.7148C22.6216 12.2455 22.2013 13.7471 21.4052 15.0546C20.6091 16.362 19.468 17.4248 18.1073 18.126C16.7466 18.8273 15.219 19.14 13.6922 19.0296C12.1654 18.9193 10.6985 18.3903 9.45279 17.5008L7.76224 19.2151C9.11307 20.2517 10.6915 20.9515 12.3667 21.2563C14.0419 21.5612 15.7656 21.4625 17.3951 20.9683C19.0245 20.4741 20.5127 19.5987 21.7363 18.4146C22.9599 17.2305 23.8837 15.7719 24.4311 14.1596C24.9786 12.5473 25.1339 10.8277 24.8841 9.14337C24.6344 7.45906 23.9869 5.85852 22.9952 4.47438C22.0035 3.09025 20.6963 1.96238 19.1817 1.18426C17.6672 0.406142 15.9891 0.000172646 14.2863 0Z" fill="#FFF"/>
</svg>
