<svg width="21" height="20" viewBox="0 0 21 20" fill="none" xmlns="http://www.w3.org/2000/svg">
<path d="M6.67708 10C5.55208 10.0372 4.63194 10.5134 3.91667 11.4286H2.52083C1.95139 11.4286 1.47222 11.2779 1.08333 10.9766C0.694444 10.6752 0.5 10.2344 0.5 9.65402C0.5 7.02753 0.930556 5.71429 1.79167 5.71429C1.83333 5.71429 1.98438 5.79241 2.24479 5.94866C2.50521 6.10491 2.84375 6.26302 3.26042 6.42299C3.67708 6.58296 4.09028 6.66295 4.5 6.66295C4.96528 6.66295 5.42708 6.57738 5.88542 6.40625C5.85069 6.68155 5.83333 6.92708 5.83333 7.14286C5.83333 8.17708 6.11458 9.12946 6.67708 10ZM17.8333 17.1094C17.8333 18.0022 17.5799 18.7072 17.0729 19.2243C16.566 19.7414 15.8924 20 15.0521 20H5.94792C5.10764 20 4.43403 19.7414 3.92708 19.2243C3.42014 18.7072 3.16667 18.0022 3.16667 17.1094C3.16667 16.715 3.17882 16.33 3.20312 15.9542C3.22743 15.5785 3.27604 15.173 3.34896 14.7377C3.42188 14.3025 3.51389 13.8988 3.625 13.5268C3.73611 13.1548 3.88542 12.792 4.07292 12.4386C4.26042 12.0852 4.47569 11.7839 4.71875 11.5346C4.96181 11.2853 5.25868 11.0863 5.60938 10.9375C5.96007 10.7887 6.34722 10.7143 6.77083 10.7143C6.84028 10.7143 6.98958 10.7943 7.21875 10.9542C7.44792 11.1142 7.70139 11.2928 7.97917 11.49C8.25694 11.6871 8.62847 11.8657 9.09375 12.0257C9.55903 12.1856 10.0278 12.2656 10.5 12.2656C10.9722 12.2656 11.441 12.1856 11.9062 12.0257C12.3715 11.8657 12.7431 11.6871 13.0208 11.49C13.2986 11.2928 13.5521 11.1142 13.7812 10.9542C14.0104 10.7943 14.1597 10.7143 14.2292 10.7143C14.6528 10.7143 15.0399 10.7887 15.3906 10.9375C15.7413 11.0863 16.0382 11.2853 16.2812 11.5346C16.5243 11.7839 16.7396 12.0852 16.9271 12.4386C17.1146 12.792 17.2639 13.1548 17.375 13.5268C17.4861 13.8988 17.5781 14.3025 17.651 14.7377C17.724 15.173 17.7726 15.5785 17.7969 15.9542C17.8212 16.33 17.8333 16.715 17.8333 17.1094ZM7.16667 2.85714C7.16667 3.64583 6.90625 4.3192 6.38542 4.87723C5.86458 5.43527 5.23611 5.71429 4.5 5.71429C3.76389 5.71429 3.13542 5.43527 2.61458 4.87723C2.09375 4.3192 1.83333 3.64583 1.83333 2.85714C1.83333 2.06845 2.09375 1.39509 2.61458 0.837054C3.13542 0.279018 3.76389 0 4.5 0C5.23611 0 5.86458 0.279018 6.38542 0.837054C6.90625 1.39509 7.16667 2.06845 7.16667 2.85714ZM14.5 7.14286C14.5 8.32589 14.1094 9.33594 13.3281 10.173C12.5469 11.01 11.6042 11.4286 10.5 11.4286C9.39583 11.4286 8.45312 11.01 7.67188 10.173C6.89062 9.33594 6.5 8.32589 6.5 7.14286C6.5 5.95982 6.89062 4.94978 7.67188 4.11272C8.45312 3.27567 9.39583 2.85714 10.5 2.85714C11.6042 2.85714 12.5469 3.27567 13.3281 4.11272C14.1094 4.94978 14.5 5.95982 14.5 7.14286ZM20.5 9.65402C20.5 10.2344 20.3056 10.6752 19.9167 10.9766C19.5278 11.2779 19.0486 11.4286 18.4792 11.4286H17.0833C16.3681 10.5134 15.4479 10.0372 14.3229 10C14.8854 9.12946 15.1667 8.17708 15.1667 7.14286C15.1667 6.92708 15.1493 6.68155 15.1146 6.40625C15.5729 6.57738 16.0347 6.66295 16.5 6.66295C16.9097 6.66295 17.3229 6.58296 17.7396 6.42299C18.1562 6.26302 18.4948 6.10491 18.7552 5.94866C19.0156 5.79241 19.1667 5.71429 19.2083 5.71429C20.0694 5.71429 20.5 7.02753 20.5 9.65402ZM19.1667 2.85714C19.1667 3.64583 18.9062 4.3192 18.3854 4.87723C17.8646 5.43527 17.2361 5.71429 16.5 5.71429C15.7639 5.71429 15.1354 5.43527 14.6146 4.87723C14.0938 4.3192 13.8333 3.64583 13.8333 2.85714C13.8333 2.06845 14.0938 1.39509 14.6146 0.837054C15.1354 0.279018 15.7639 0 16.5 0C17.2361 0 17.8646 0.279018 18.3854 0.837054C18.9062 1.39509 19.1667 2.06845 19.1667 2.85714Z" fill="black"/>
</svg>
