<svg width="30" height="30" viewBox="0 0 30 30" fill="none" xmlns="http://www.w3.org/2000/svg">
<path d="M15 0C6.71484 0 0 6.71484 0 15C0 23.2852 6.71484 30 15 30C23.2852 30 30 23.2852 30 15C30 6.71484 23.2852 0 15 0ZM15 25.002C9.47461 25.002 4.99805 20.5254 4.99805 15C4.99805 9.47461 9.47461 4.99805 15 4.99805C20.5254 4.99805 25.002 9.47461 25.002 15C25.002 20.5254 20.5254 25.002 15 25.002ZM15 10.002C12.2402 10.002 10.002 12.2402 10.002 15C10.002 17.7598 12.2402 19.998 15 19.998C17.7598 19.998 19.998 17.7598 19.998 15C19.998 12.2402 17.7598 10.002 15 10.002Z" fill="#DC75B0"/>
</svg>
