<svg width="36" height="37" viewBox="0 0 36 37" fill="none" xmlns="http://www.w3.org/2000/svg">
<path d="M7.58398 6.18616V3.625C7.58398 2.17526 8.72732 1 10.1378 1H32.2707C33.6812 1 34.8246 2.17526 34.8246 3.625V26.375C34.8246 27.8248 33.6812 29 32.2707 29H29.7318" stroke="white" stroke-width="1.5"/>
<path d="M27.1627 6.25H3.32724C1.91681 6.25 0.773438 7.42525 0.773438 8.875V33.375C0.773438 34.8247 1.91681 36 3.32724 36H27.1627C28.5732 36 29.7165 34.8247 29.7165 33.375V8.875C29.7165 7.42525 28.5732 6.25 27.1627 6.25Z" fill="#DC75B0" stroke="white" stroke-width="1.5" stroke-linejoin="round"/>
<path d="M13.0654 17.7215L17.5708 12.9007C18.8065 11.6305 20.8372 11.6585 22.1066 12.9632C23.3759 14.2679 23.4031 16.3553 22.1674 17.6255L20.5413 19.3954" stroke="white" stroke-width="1.5" stroke-linecap="round" stroke-linejoin="round"/>
<path d="M8.83169 22.6541C8.39729 23.1006 7.49903 23.9922 7.49903 23.9922C6.26324 25.2623 6.2297 27.5263 7.49903 28.831C8.76835 30.1357 10.7991 30.1637 12.0348 28.8935L16.431 24.7912" stroke="white" stroke-width="1.5" stroke-linecap="round" stroke-linejoin="round"/>
<path d="M13.2562 22.2873C12.6666 21.6812 12.345 20.9063 12.2935 20.1229C12.2341 19.2197 12.5336 18.3051 13.1954 17.625" stroke="white" stroke-width="1.5" stroke-linecap="round" stroke-linejoin="round"/>
<path d="M16.3691 20.1287C17.6385 21.4334 17.6657 23.5208 16.4299 24.7909" stroke="white" stroke-width="1.5" stroke-linecap="round" stroke-linejoin="round"/>
</svg>
