<svg width="21" height="20" viewBox="0 0 21 20" fill="none" xmlns="http://www.w3.org/2000/svg">
<path d="M9.73077 0.769231C9.73077 0.346154 9.38461 0 8.96154 0H1.26923C0.846154 0 0.5 0.346154 0.5 0.769231V8.46154C0.5 8.88461 0.846154 9.23077 1.26923 9.23077H8.96154C9.38461 9.23077 9.73077 8.88461 9.73077 8.46154V0.769231Z" fill="#150F0F"/>
<path d="M20.4998 0.769231C20.4998 0.346154 20.1537 0 19.7306 0H12.0383C11.6152 0 11.269 0.346154 11.269 0.769231V8.46154C11.269 8.88461 11.6152 9.23077 12.0383 9.23077H19.7306C20.1537 9.23077 20.4998 8.88461 20.4998 8.46154V0.769231Z" fill="#150F0F"/>
<path d="M12.0383 20.0001H19.7306C20.1537 20.0001 20.4998 19.6539 20.4998 19.2308V11.5385C20.4998 11.1154 20.1537 10.7693 19.7306 10.7693H12.0383C11.6152 10.7693 11.269 11.1154 11.269 11.5385V19.2308C11.269 19.6539 11.6152 20.0001 12.0383 20.0001Z" fill="#150F0F"/>
<path d="M8.96154 10.7693H1.26923C0.846154 10.7693 0.5 11.1154 0.5 11.5385V19.2308C0.5 19.6539 0.846154 20.0001 1.26923 20.0001H8.96154C9.38461 20.0001 9.73077 19.6539 9.73077 19.2308V11.5385C9.73077 11.1154 9.38461 10.7693 8.96154 10.7693Z" fill="#150F0F"/>
</svg>
