<svg width="25" height="24" viewBox="0 0 25 24" fill="none" xmlns="http://www.w3.org/2000/svg">
<path d="M19.7397 4H17.7397V3C17.7397 2.73478 17.6344 2.48043 17.4469 2.29289C17.2593 2.10536 17.005 2 16.7397 2C16.4745 2 16.2202 2.10536 16.0326 2.29289C15.8451 2.48043 15.7397 2.73478 15.7397 3V4H9.73975V3C9.73975 2.73478 9.63439 2.48043 9.44685 2.29289C9.25932 2.10536 9.00496 2 8.73975 2C8.47453 2 8.22018 2.10536 8.03264 2.29289C7.8451 2.48043 7.73975 2.73478 7.73975 3V4H5.73975C4.9441 4 4.18104 4.31607 3.61843 4.87868C3.05582 5.44129 2.73975 6.20435 2.73975 7V19C2.73975 19.7956 3.05582 20.5587 3.61843 21.1213C4.18104 21.6839 4.9441 22 5.73975 22H19.7397C20.5354 22 21.2985 21.6839 21.8611 21.1213C22.4237 20.5587 22.7397 19.7956 22.7397 19V7C22.7397 6.20435 22.4237 5.44129 21.8611 4.87868C21.2985 4.31607 20.5354 4 19.7397 4ZM20.7397 19C20.7397 19.2652 20.6344 19.5196 20.4469 19.7071C20.2593 19.8946 20.005 20 19.7397 20H5.73975C5.47453 20 5.22018 19.8946 5.03264 19.7071C4.8451 19.5196 4.73975 19.2652 4.73975 19V12H20.7397V19ZM20.7397 10H4.73975V7C4.73975 6.73478 4.8451 6.48043 5.03264 6.29289C5.22018 6.10536 5.47453 6 5.73975 6H7.73975V7C7.73975 7.26522 7.8451 7.51957 8.03264 7.70711C8.22018 7.89464 8.47453 8 8.73975 8C9.00496 8 9.25932 7.89464 9.44685 7.70711C9.63439 7.51957 9.73975 7.26522 9.73975 7V6H15.7397V7C15.7397 7.26522 15.8451 7.51957 16.0326 7.70711C16.2202 7.89464 16.4745 8 16.7397 8C17.005 8 17.2593 7.89464 17.4469 7.70711C17.6344 7.51957 17.7397 7.26522 17.7397 7V6H19.7397C20.005 6 20.2593 6.10536 20.4469 6.29289C20.6344 6.48043 20.7397 6.73478 20.7397 7V10Z" fill="#7D7A7A"/>
</svg>
