<svg width="10" height="15" viewBox="0 0 10 15" fill="none" xmlns="http://www.w3.org/2000/svg">
<path d="M4.45469 15L0.854688 8.72V7.24H2.05469C2.53469 7.24 2.95469 7.17333 3.31469 7.04C3.68802 6.89333 3.99469 6.68667 4.23469 6.42C4.48802 6.15333 4.66135 5.83333 4.75469 5.46H0.854688V3.98H4.73469C4.65469 3.63333 4.51469 3.32667 4.31469 3.06C4.12802 2.79333 3.87469 2.58667 3.55469 2.44C3.24802 2.28 2.87469 2.2 2.43469 2.2H0.854688V0.719999H9.87469V2.2H6.73469C6.96135 2.45333 7.14802 2.72667 7.29469 3.02C7.45469 3.31333 7.56135 3.63333 7.61469 3.98H9.87469V5.46H7.65469C7.52135 6.44667 7.14135 7.22 6.51469 7.78C5.88802 8.32667 5.08135 8.7 4.09469 8.9L8.01469 15H4.45469Z" fill="#C5C5C5"/>
</svg>
