<svg width="55" height="46" viewBox="0 0 55 46" fill="none" xmlns="http://www.w3.org/2000/svg">
<path d="M28.5264 46C26.267 46 24.1401 45.1014 22.5435 43.4683C20.9469 41.8352 20.0612 39.6636 20.064 37.3537C20.064 35.2051 20.8284 34.4793 22.2191 31.5991H8.57767C3.91205 31.5991 0.115234 27.7195 0.115234 22.9586C0.115234 18.1948 3.91205 14.3181 8.57767 14.3181H22.2191C20.8256 11.4379 20.064 10.7034 20.064 8.55484C20.0614 7.41954 20.2794 6.295 20.7055 5.24638C21.1316 4.19776 21.7573 3.24591 22.5463 2.44599C25.7395 -0.81437 31.3134 -0.817249 34.5094 2.44887L54.5964 22.9586L34.5094 43.4683C33.7258 44.2735 32.7935 44.9119 31.7665 45.3465C30.7394 45.7811 29.6382 46.0032 28.5264 46ZM8.57767 20.0784C7.85136 20.1116 7.16558 20.4295 6.66311 20.966C6.16065 21.5025 5.88022 22.2163 5.88022 22.9586C5.88022 23.7009 6.16065 24.4146 6.66311 24.9511C7.16558 25.4876 7.85136 25.8056 8.57767 25.8388H35.8211L26.5321 35.3232C26.2692 35.5893 26.0608 35.9061 25.9189 36.2551C25.777 36.6042 25.7045 36.9786 25.7056 37.3566C25.7056 38.1313 25.999 38.8514 26.5321 39.3957C27.0691 39.92 27.7835 40.2126 28.5264 40.2126C29.2694 40.2126 29.9838 39.92 30.5207 39.3957L46.6191 22.9586L30.5207 6.52143C29.9838 5.99715 29.2694 5.70455 28.5264 5.70455C27.7835 5.70455 27.0691 5.99715 26.5321 6.52143C26.2692 6.78752 26.0608 7.10432 25.9189 7.4534C25.777 7.80249 25.7045 8.17689 25.7056 8.55484C25.7056 9.32672 25.999 10.0496 26.5321 10.594L35.8211 20.0784H8.57767Z" fill="#DC75B0"/>
</svg>
