<svg width="21" height="20" viewBox="0 0 21 20" fill="none" xmlns="http://www.w3.org/2000/svg">
<path d="M8.5 2H2.5V8H8.5V2ZM7.5 7H3.5V3H7.5V7Z" fill="#191919"/>
<path d="M4.5 4H6.5V6H4.5V4ZM2.5 18H8.5V12H2.5V18ZM3.5 13H7.5V17H3.5V13Z" fill="#191919"/>
<path d="M4.5 14H6.5V16H4.5V14ZM12.5 2V8H18.5V2H12.5ZM17.5 7H13.5V3H17.5V7Z" fill="#191919"/>
<path d="M14.5 4H16.5V6H14.5V4ZM4.5 9H2.5V11H5.5V10H4.5V9ZM9.5 11H11.5V13H9.5V11ZM5.5 9H7.5V10H5.5V9ZM11.5 14H9.5V15H10.5V16H11.5V15V14ZM8.5 9V10H7.5V11H9.5V9H8.5ZM10.5 6H11.5V8H10.5V6ZM11.5 10V11H13.5V9H10.5V10H11.5ZM9.5 8H10.5V9H9.5V8ZM11.5 16H13.5V18H11.5V16ZM9.5 16H10.5V18H9.5V16ZM11.5 13H12.5V14H11.5V13ZM11.5 5V3H10.5V2H9.5V6H10.5V5H11.5ZM14.5 16H15.5V18H14.5V16ZM14.5 14H16.5V15H14.5V14ZM13.5 15H14.5V16H13.5V15ZM12.5 14H13.5V15H12.5V14ZM16.5 12V13H17.5V14H18.5V12H17.5H16.5ZM17.5 15H16.5V18H18.5V16H17.5V15ZM12.5 12V13H15.5V11H13.5V12H12.5ZM14.5 9V10H16.5V11H18.5V9H16.5H14.5Z" fill="#191919"/>
</svg>
