<svg width="17" height="18" viewBox="0 0 17 18" fill="none" xmlns="http://www.w3.org/2000/svg">
<mask id="mask0_106_6318" style="mask-type:luminance" maskUnits="userSpaceOnUse" x="0" y="0" width="17" height="18">
<path d="M8.13287 1.5L10.1027 2.937L12.5414 2.9325L13.2902 5.253L15.2657 6.6825L14.5079 9L15.2657 11.3175L13.2902 12.747L12.5414 15.0675L10.1027 15.063L8.13287 16.5L6.163 15.063L3.72438 15.0675L2.9755 12.747L1 11.3175L1.75787 9L1 6.6825L2.9755 5.253L3.72438 2.9325L6.163 2.937L8.13287 1.5Z" fill="#555555" stroke="white" stroke-width="1.5" stroke-linecap="round" stroke-linejoin="round"/>
<path d="M5.50781 9L7.38281 10.875L11.1328 7.125" stroke="white" stroke-width="1.5" stroke-linecap="round" stroke-linejoin="round"/>
</mask>
<g mask="url(#mask0_106_6318)">
<path d="M-0.867188 0H17.1328V18H-0.867188V0Z" fill="#4ECB71"/>
</g>
</svg>
