<svg width="20" height="20" viewBox="0 0 20 20" fill="none" xmlns="http://www.w3.org/2000/svg">
<path d="M10.9771 0V2.02304C15.378 2.56385 18.4957 6.55984 17.9544 10.9564C17.4932 14.6019 14.6262 17.4962 10.9771 17.9269V19.9299C16.4908 19.3791 20.5007 14.4917 19.9493 8.98348C19.4982 4.22634 15.7189 0.470706 10.9771 0ZM8.97218 0.030045C7.01735 0.22033 5.15274 0.971457 3.62897 2.23335L5.06252 3.71557C6.18529 2.81422 7.53864 2.23335 8.97218 2.03305V0.030045ZM2.21548 3.64547C0.962034 5.16509 0.190673 7.02362 0 8.98348H2.00496C2.19543 7.56134 2.75682 6.20931 3.64902 5.07762L2.21548 3.64547ZM13.4833 6.47972L8.59124 11.3671L6.46598 9.24387L5.40336 10.3055L8.59124 13.4902L14.546 7.54131L13.4833 6.47972ZM0.0100248 10.9865C0.21052 12.9494 0.982429 14.8022 2.2255 16.3245L3.64902 14.8923C2.76376 13.7602 2.19939 12.4112 2.01498 10.9865H0.0100248ZM5.06252 16.3645L3.62897 17.7366C5.1475 19.0012 7.00659 19.7887 8.97218 20V17.997C7.54606 17.8128 6.19572 17.2489 5.06252 16.3645Z" fill="#04AF34"/>
</svg>
