<svg width="20" height="20" viewBox="0 0 20 20" fill="none" xmlns="http://www.w3.org/2000/svg">
<rect width="20" height="20" rx="3" fill="#D97706"/>
<path d="M10.0029 14.645C14.7331 14.645 18 11.1057 18 9.99998C18 8.88872 14.7274 5.35498 10.0029 5.35498C5.33714 5.35472 2 8.88846 2 9.99972C2 11.1054 5.33114 14.645 10.0029 14.645ZM10.0029 13.7882C6.15086 13.7882 3.02457 10.7637 3.02457 9.99945C3.02457 9.35455 6.15086 6.21097 10.0029 6.21097C13.8434 6.21097 16.9754 9.35455 16.9754 9.99945C16.9754 10.7639 13.8434 13.7882 10.0029 13.7882ZM10.0029 13.0348C11.8237 13.0348 13.2871 11.6527 13.2871 9.99945C13.2871 8.30307 11.8237 6.96433 10.0029 6.96433C8.17057 6.96433 6.70114 8.30281 6.71286 9.99945C6.71857 11.6527 8.17057 13.0348 10.0029 13.0348ZM10.0029 11.0078C9.39429 11.0078 8.90229 10.5523 8.90229 9.99945C8.90229 9.44131 9.394 8.99162 10.0029 8.99162C10.6057 8.99162 11.0977 9.44131 11.0977 9.99945C11.0977 10.5523 10.606 11.0078 10.0029 11.0078Z" fill="white"/>
</svg>
