<svg width="35" height="35" viewBox="0 0 35 35" fill="none" xmlns="http://www.w3.org/2000/svg">
<path d="M35 18.7223C34.9965 21.2947 34.9772 23.4786 34.832 25.2722C34.6622 27.3546 34.314 29.094 33.537 30.5377C33.1979 31.1707 32.7675 31.7503 32.2595 32.2579C30.8018 33.7156 28.9468 34.3753 26.5948 34.6903C24.297 35 21.35 35 17.5927 35H17.4072C13.6482 35 10.7047 35 8.40525 34.6903C6.055 34.3753 4.19825 33.7156 2.74225 32.2579C1.45075 30.9665 0.78225 29.36 0.42875 27.3669C0.0787498 25.407 0.0157502 22.9711 0.00350016 19.9455C1.63525e-07 19.1755 0 18.3618 0 17.5009V17.4064C0 13.6476 6.95387e-08 10.7042 0.30975 8.40483C0.62475 6.0547 1.2845 4.19804 2.74225 2.74211C4.19825 1.28444 6.055 0.624719 8.40525 0.309735C10.4492 0.0349985 13.0777 0.00349983 16.2785 0C16.6025 0 16.9132 0.128687 17.1422 0.357751C17.3713 0.586816 17.5 0.897493 17.5 1.22144C17.5 1.54538 17.3713 1.85606 17.1422 2.08513C16.9132 2.31419 16.6025 2.44288 16.2785 2.44288C13.0322 2.44638 10.619 2.47438 8.73075 2.72811C6.65 3.0081 5.39525 3.54007 4.46775 4.46753C3.54025 5.39498 3.01 6.65142 2.73 8.73381C2.44475 10.8512 2.44125 13.6301 2.44125 17.5009V18.8728L4.07225 17.4484C4.78717 16.8229 5.71309 16.4925 6.66251 16.524C7.61192 16.5555 8.51388 16.9466 9.18575 17.6181L16.1683 24.6003C16.71 25.1423 17.4256 25.4758 18.1891 25.5421C18.9526 25.6083 19.715 25.4031 20.342 24.9625L20.8285 24.6213C21.7329 23.9857 22.8262 23.6757 23.9296 23.7422C25.033 23.8086 26.0812 24.2475 26.9027 24.987L31.5105 29.1343C31.9742 28.1596 32.2507 26.8804 32.3977 25.0745C32.536 23.3736 32.5552 21.3087 32.557 18.7223C32.557 18.3984 32.6857 18.0877 32.9148 17.8586C33.1438 17.6296 33.4545 17.5009 33.7785 17.5009C34.1025 17.5009 34.4132 17.6296 34.6422 17.8586C34.8713 18.0877 35 18.3984 35 18.7223Z" fill="white"/>
<path fill-rule="evenodd" clip-rule="evenodd" d="M27.125 0.00195312C23.4132 0.00195312 21.5565 0.00195294 20.4033 1.15515C19.25 2.30834 19.25 4.165 19.25 7.87656C19.25 11.5881 19.25 13.4448 20.4033 14.598C21.5565 15.7512 23.4132 15.7512 27.125 15.7512C30.8368 15.7512 32.6935 15.7512 33.8468 14.598C35 13.4448 35 11.5881 35 7.87656C35 4.165 35 2.30834 33.8468 1.15515C32.6935 0.00195294 30.8368 0.00195312 27.125 0.00195312ZM30.6775 9.67897L28.0525 12.3038C27.8064 12.5496 27.4728 12.6877 27.125 12.6877C26.7772 12.6877 26.4436 12.5496 26.1975 12.3038L23.5725 9.67897C23.3407 9.43018 23.2144 9.10111 23.2204 8.7611C23.2264 8.42109 23.3642 8.09668 23.6047 7.85622C23.8451 7.61576 24.1696 7.47802 24.5096 7.47202C24.8496 7.46603 25.1787 7.59223 25.4275 7.82406L25.8125 8.20904V4.37673C25.8125 4.02866 25.9508 3.69483 26.1969 3.4487C26.4431 3.20257 26.7769 3.0643 27.125 3.0643C27.4731 3.0643 27.8069 3.20257 28.0531 3.4487C28.2992 3.69483 28.4375 4.02866 28.4375 4.37673V8.20904L28.8225 7.82406C28.9427 7.69512 29.0876 7.59169 29.2486 7.51996C29.4096 7.44823 29.5834 7.40966 29.7596 7.40655C29.9358 7.40344 30.1109 7.43586 30.2743 7.50186C30.4377 7.56787 30.5862 7.66612 30.7108 7.79075C30.8354 7.91537 30.9337 8.06383 30.9997 8.22725C31.0657 8.39067 31.0981 8.56571 31.095 8.74193C31.0919 8.91815 31.0534 9.09194 30.9816 9.25293C30.9099 9.41392 30.8065 9.55882 30.6775 9.67897Z" fill="#DC75B0"/>
</svg>
