<svg width="16" height="11" viewBox="0 0 16 11" fill="none" xmlns="http://www.w3.org/2000/svg">
<path d="M7.76562 7.93275L3.84066 5.2785L4.62498 4.73925L7.21094 6.4875V0H8.32031V6.4875L10.9052 4.74L11.6906 5.2785L7.76562 7.93275ZM1.79164 10.5C1.28133 10.5 0.855328 10.3845 0.51364 10.1535C0.171953 9.9225 0.000739583 9.63425 0 9.28875V7.4715H1.10938V9.28875C1.10938 9.40375 1.18037 9.5095 1.32237 9.606C1.46437 9.7025 1.6208 9.7505 1.79164 9.75H13.7396C13.9097 9.75 14.0661 9.702 14.2089 9.606C14.3516 9.51 14.4226 9.40425 14.4219 9.28875V7.4715H15.5312V9.28875C15.5312 9.63375 15.3604 9.92175 15.0187 10.1528C14.677 10.3837 14.2507 10.4995 13.7396 10.5H1.79164Z" fill="white"/>
</svg>
