<svg width="15" height="20.5" viewBox="0 0 20 27" fill="none" xmlns="http://www.w3.org/2000/svg">
<path d="M10 0C7.3488 0.00328225 4.80708 1.10996 2.93239 3.07728C1.05771 5.0446 0.00313834 7.71192 1.0639e-05 10.4941C-0.00316471 12.7678 0.704538 14.9797 2.01455 16.7906C2.01455 16.7906 2.28728 17.1674 2.33183 17.2218L10 26.7123L17.6718 17.2171C17.7118 17.1665 17.9854 16.7906 17.9854 16.7906L17.9864 16.7877C19.2957 14.9776 20.0031 12.7667 20 10.4941C19.9969 7.71192 18.9423 5.0446 17.0676 3.07728C15.1929 1.10996 12.6512 0.00328225 10 0ZM10 14.3102C9.2808 14.3102 8.57774 14.0864 7.97975 13.6671C7.38175 13.2477 6.91567 12.6518 6.64044 11.9545C6.36521 11.2572 6.2932 10.4899 6.43351 9.74966C6.57382 9.00942 6.92015 8.32946 7.42871 7.79578C7.93726 7.26209 8.5852 6.89865 9.29058 6.75141C9.99597 6.60416 10.7271 6.67973 11.3916 6.96856C12.056 7.25739 12.624 7.7465 13.0235 8.37405C13.4231 9.00159 13.6364 9.73939 13.6364 10.4941C13.6352 11.5058 13.2517 12.4757 12.57 13.1911C11.8883 13.9065 10.9641 14.3089 10 14.3102Z" fill="#C5C5C5"/>
</svg>
