<svg width="25" height="25" viewBox="0 0 25 25" fill="none" xmlns="http://www.w3.org/2000/svg">
<path d="M12.5039 3.96564e-06C9.87637 -0.00208871 7.31515 0.824098 5.18409 2.36091C3.05324 3.89778 1.46146 6.06679 0.634564 8.5597C-0.192115 11.0529 -0.211568 13.7432 0.579088 16.2483C1.36974 18.7534 2.93013 20.9453 5.03858 22.5125C7.1945 24.1274 9.81602 25 12.5101 25C15.2041 25 17.8254 24.1274 19.9816 22.5125C22.0846 20.9413 23.6396 18.7482 24.4258 16.244C25.2123 13.74 25.1903 11.052 24.3628 8.5613C23.5355 6.07043 21.9448 3.90308 19.8162 2.36627C17.6877 0.829616 15.1294 0.00177177 12.5039 0.00011105L12.5039 3.96564e-06ZM12.5039 4.99996C13.4989 4.99996 14.4531 5.39505 15.1564 6.0984C15.86 6.80152 16.2552 7.75537 16.2552 8.74998C16.2552 9.74459 15.86 10.6984 15.1564 11.4016C14.4531 12.1049 13.4989 12.5 12.5039 12.5C11.509 12.5 10.5548 12.1049 9.85145 11.4016C9.14787 10.6984 8.75264 9.74459 8.75264 8.74998C8.75557 7.75639 9.15185 6.80426 9.85456 6.1015C10.5575 5.39902 11.51 5.00285 12.5039 4.99996ZM12.5039 22.5002C9.91946 22.4977 7.43637 21.4941 5.57637 19.7C6.31805 17.8428 7.77398 16.3606 9.61802 15.5853C11.462 14.8097 13.5402 14.8059 15.387 15.5748C17.2337 16.3434 18.6949 17.8206 19.4435 19.6751C17.5879 21.4865 15.0971 22.5004 12.5036 22.5002L12.5039 22.5002Z" fill="black"/>
</svg>
