<svg width="23" height="18" viewBox="0 0 23 18" fill="none" xmlns="http://www.w3.org/2000/svg">
<path d="M2.06489 17.8889C1.47626 17.8889 0.985167 17.6921 0.591611 17.2986C0.198056 16.905 0.000851852 16.4135 0 15.824V2.06489C0 1.47626 0.197204 0.985166 0.591611 0.591611C0.986019 0.198055 1.47668 0.000851852 2.06361 0H20.9364C21.5242 0 22.0148 0.197203 22.4084 0.591611C22.8019 0.986018 22.9991 1.47711 23 2.06489V15.8253C23 16.4131 22.8028 16.9041 22.4084 17.2986C22.014 17.693 21.5233 17.8897 20.9364 17.8889H2.06489ZM11.5 9.09267L1.27778 2.40861V15.8253C1.27778 16.0544 1.35146 16.2427 1.49883 16.3901C1.6462 16.5374 1.83489 16.6111 2.06489 16.6111H20.9364C21.1655 16.6111 21.3538 16.5374 21.5012 16.3901C21.6485 16.2427 21.7222 16.054 21.7222 15.824V2.40733L11.5 9.09267ZM11.5 7.66667L21.3287 1.27778H1.67133L11.5 7.66667ZM1.27778 2.40861V1.27778V15.8253C1.27778 16.0544 1.35146 16.2427 1.49883 16.3901C1.6462 16.5374 1.83489 16.6111 2.06489 16.6111H1.27778V2.40861Z" fill="#6A2B80"/>
</svg>
