<svg width="16" height="16" viewBox="0 0 16 16" fill="none" xmlns="http://www.w3.org/2000/svg">
<path fill-rule="evenodd" clip-rule="evenodd" d="M8.125 0.00195312C4.41325 0.00195312 2.5565 0.00195289 1.40325 1.15515C0.250001 2.30834 0.25 4.165 0.25 7.87656C0.25 11.5881 0.250001 13.4448 1.40325 14.598C2.5565 15.7512 4.41325 15.7512 8.125 15.7512C11.8368 15.7512 13.6935 15.7512 14.8468 14.598C16 13.4448 16 11.5881 16 7.87656C16 4.165 16 2.30834 14.8468 1.15515C13.6935 0.00195289 11.8368 0.00195312 8.125 0.00195312ZM11.6775 9.67897L9.0525 12.3038C8.80641 12.5496 8.47281 12.6877 8.125 12.6877C7.77719 12.6877 7.44359 12.5496 7.1975 12.3038L4.5725 9.67897C4.34066 9.43018 4.21444 9.10111 4.22044 8.7611C4.22644 8.42109 4.36419 8.09668 4.60466 7.85622C4.84514 7.61576 5.16956 7.47802 5.50959 7.47202C5.84961 7.46602 6.1787 7.59223 6.4275 7.82406L6.8125 8.20904V4.37673C6.8125 4.02866 6.95078 3.69483 7.19692 3.4487C7.44306 3.20257 7.7769 3.0643 8.125 3.0643C8.4731 3.0643 8.80694 3.20257 9.05308 3.4487C9.29922 3.69483 9.4375 4.02866 9.4375 4.37673V8.20904L9.8225 7.82406C9.94266 7.69512 10.0876 7.59169 10.2486 7.51996C10.4096 7.44823 10.5834 7.40966 10.7596 7.40655C10.9358 7.40344 11.1109 7.43586 11.2743 7.50186C11.4377 7.56787 11.5862 7.66612 11.7108 7.79075C11.8354 7.91537 11.9337 8.06383 11.9997 8.22725C12.0657 8.39067 12.0981 8.56571 12.095 8.74193C12.0919 8.91815 12.0534 9.09194 11.9816 9.25293C11.9099 9.41392 11.8065 9.55882 11.6775 9.67897Z" fill="#DC75B0"/>
</svg>
